%TF.GenerationSoftware,KiCad,Pcbnew,(5.1.6)-1*%
%TF.CreationDate,2022-02-09T07:41:59-05:00*%
%TF.ProjectId,A1000_Parallel,41313030-305f-4506-9172-616c6c656c2e,rev?*%
%TF.SameCoordinates,Original*%
%TF.FileFunction,Legend,Bot*%
%TF.FilePolarity,Positive*%
%FSLAX46Y46*%
G04 Gerber Fmt 4.6, Leading zero omitted, Abs format (unit mm)*
G04 Created by KiCad (PCBNEW (5.1.6)-1) date 2022-02-09 07:41:59*
%MOMM*%
%LPD*%
G01*
G04 APERTURE LIST*
%ADD10C,0.150000*%
G04 APERTURE END LIST*
D10*
X141636571Y-122213714D02*
X141398476Y-122880380D01*
X141160380Y-122213714D01*
X140588952Y-121880380D02*
X140493714Y-121880380D01*
X140398476Y-121928000D01*
X140350857Y-121975619D01*
X140303238Y-122070857D01*
X140255619Y-122261333D01*
X140255619Y-122499428D01*
X140303238Y-122689904D01*
X140350857Y-122785142D01*
X140398476Y-122832761D01*
X140493714Y-122880380D01*
X140588952Y-122880380D01*
X140684190Y-122832761D01*
X140731809Y-122785142D01*
X140779428Y-122689904D01*
X140827047Y-122499428D01*
X140827047Y-122261333D01*
X140779428Y-122070857D01*
X140731809Y-121975619D01*
X140684190Y-121928000D01*
X140588952Y-121880380D01*
X139827047Y-122785142D02*
X139779428Y-122832761D01*
X139827047Y-122880380D01*
X139874666Y-122832761D01*
X139827047Y-122785142D01*
X139827047Y-122880380D01*
X139398476Y-121975619D02*
X139350857Y-121928000D01*
X139255619Y-121880380D01*
X139017523Y-121880380D01*
X138922285Y-121928000D01*
X138874666Y-121975619D01*
X138827047Y-122070857D01*
X138827047Y-122166095D01*
X138874666Y-122308952D01*
X139446095Y-122880380D01*
X138827047Y-122880380D01*
X116085333Y-122213714D02*
X115894857Y-122880380D01*
X115704380Y-122404190D01*
X115513904Y-122880380D01*
X115323428Y-122213714D01*
X114942476Y-122880380D02*
X114942476Y-122213714D01*
X114942476Y-121880380D02*
X114990095Y-121928000D01*
X114942476Y-121975619D01*
X114894857Y-121928000D01*
X114942476Y-121880380D01*
X114942476Y-121975619D01*
X114466285Y-122880380D02*
X114466285Y-122213714D01*
X114466285Y-122404190D02*
X114418666Y-122308952D01*
X114371047Y-122261333D01*
X114275809Y-122213714D01*
X114180571Y-122213714D01*
X113466285Y-122832761D02*
X113561523Y-122880380D01*
X113752000Y-122880380D01*
X113847238Y-122832761D01*
X113894857Y-122737523D01*
X113894857Y-122356571D01*
X113847238Y-122261333D01*
X113752000Y-122213714D01*
X113561523Y-122213714D01*
X113466285Y-122261333D01*
X113418666Y-122356571D01*
X113418666Y-122451809D01*
X113894857Y-122547047D01*
X113132952Y-122213714D02*
X112752000Y-122213714D01*
X112990095Y-121880380D02*
X112990095Y-122737523D01*
X112942476Y-122832761D01*
X112847238Y-122880380D01*
X112752000Y-122880380D01*
X111990095Y-122880380D02*
X111990095Y-122356571D01*
X112037714Y-122261333D01*
X112132952Y-122213714D01*
X112323428Y-122213714D01*
X112418666Y-122261333D01*
X111990095Y-122832761D02*
X112085333Y-122880380D01*
X112323428Y-122880380D01*
X112418666Y-122832761D01*
X112466285Y-122737523D01*
X112466285Y-122642285D01*
X112418666Y-122547047D01*
X112323428Y-122499428D01*
X112085333Y-122499428D01*
X111990095Y-122451809D01*
X111513904Y-122213714D02*
X111513904Y-123213714D01*
X111513904Y-122261333D02*
X111418666Y-122213714D01*
X111228190Y-122213714D01*
X111132952Y-122261333D01*
X111085333Y-122308952D01*
X111037714Y-122404190D01*
X111037714Y-122689904D01*
X111085333Y-122785142D01*
X111132952Y-122832761D01*
X111228190Y-122880380D01*
X111418666Y-122880380D01*
X111513904Y-122832761D01*
X109894857Y-121975619D02*
X109847238Y-121928000D01*
X109752000Y-121880380D01*
X109513904Y-121880380D01*
X109418666Y-121928000D01*
X109371047Y-121975619D01*
X109323428Y-122070857D01*
X109323428Y-122166095D01*
X109371047Y-122308952D01*
X109942476Y-122880380D01*
X109323428Y-122880380D01*
X108704380Y-121880380D02*
X108609142Y-121880380D01*
X108513904Y-121928000D01*
X108466285Y-121975619D01*
X108418666Y-122070857D01*
X108371047Y-122261333D01*
X108371047Y-122499428D01*
X108418666Y-122689904D01*
X108466285Y-122785142D01*
X108513904Y-122832761D01*
X108609142Y-122880380D01*
X108704380Y-122880380D01*
X108799619Y-122832761D01*
X108847238Y-122785142D01*
X108894857Y-122689904D01*
X108942476Y-122499428D01*
X108942476Y-122261333D01*
X108894857Y-122070857D01*
X108847238Y-121975619D01*
X108799619Y-121928000D01*
X108704380Y-121880380D01*
X107990095Y-121975619D02*
X107942476Y-121928000D01*
X107847238Y-121880380D01*
X107609142Y-121880380D01*
X107513904Y-121928000D01*
X107466285Y-121975619D01*
X107418666Y-122070857D01*
X107418666Y-122166095D01*
X107466285Y-122308952D01*
X108037714Y-122880380D01*
X107418666Y-122880380D01*
X107037714Y-121975619D02*
X106990095Y-121928000D01*
X106894857Y-121880380D01*
X106656761Y-121880380D01*
X106561523Y-121928000D01*
X106513904Y-121975619D01*
X106466285Y-122070857D01*
X106466285Y-122166095D01*
X106513904Y-122308952D01*
X107085333Y-122880380D01*
X106466285Y-122880380D01*
X140914380Y-78583428D02*
X139914380Y-78583428D01*
X139914380Y-78964380D01*
X139962000Y-79059619D01*
X140009619Y-79107238D01*
X140104857Y-79154857D01*
X140247714Y-79154857D01*
X140342952Y-79107238D01*
X140390571Y-79059619D01*
X140438190Y-78964380D01*
X140438190Y-78583428D01*
X140914380Y-79726285D02*
X140866761Y-79631047D01*
X140771523Y-79583428D01*
X139914380Y-79583428D01*
X140247714Y-80535809D02*
X140914380Y-80535809D01*
X140247714Y-80107238D02*
X140771523Y-80107238D01*
X140866761Y-80154857D01*
X140914380Y-80250095D01*
X140914380Y-80392952D01*
X140866761Y-80488190D01*
X140819142Y-80535809D01*
X140247714Y-81440571D02*
X141057238Y-81440571D01*
X141152476Y-81392952D01*
X141200095Y-81345333D01*
X141247714Y-81250095D01*
X141247714Y-81107238D01*
X141200095Y-81012000D01*
X140866761Y-81440571D02*
X140914380Y-81345333D01*
X140914380Y-81154857D01*
X140866761Y-81059619D01*
X140819142Y-81012000D01*
X140723904Y-80964380D01*
X140438190Y-80964380D01*
X140342952Y-81012000D01*
X140295333Y-81059619D01*
X140247714Y-81154857D01*
X140247714Y-81345333D01*
X140295333Y-81440571D01*
X140914380Y-82678666D02*
X140247714Y-82678666D01*
X139914380Y-82678666D02*
X139962000Y-82631047D01*
X140009619Y-82678666D01*
X139962000Y-82726285D01*
X139914380Y-82678666D01*
X140009619Y-82678666D01*
X140247714Y-83154857D02*
X140914380Y-83154857D01*
X140342952Y-83154857D02*
X140295333Y-83202476D01*
X140247714Y-83297714D01*
X140247714Y-83440571D01*
X140295333Y-83535809D01*
X140390571Y-83583428D01*
X140914380Y-83583428D01*
X140628666Y-84773904D02*
X140628666Y-85250095D01*
X140914380Y-84678666D02*
X139914380Y-85012000D01*
X140914380Y-85345333D01*
X139914380Y-86154857D02*
X139914380Y-85678666D01*
X140390571Y-85631047D01*
X140342952Y-85678666D01*
X140295333Y-85773904D01*
X140295333Y-86012000D01*
X140342952Y-86107238D01*
X140390571Y-86154857D01*
X140485809Y-86202476D01*
X140723904Y-86202476D01*
X140819142Y-86154857D01*
X140866761Y-86107238D01*
X140914380Y-86012000D01*
X140914380Y-85773904D01*
X140866761Y-85678666D01*
X140819142Y-85631047D01*
X139914380Y-86821523D02*
X139914380Y-86916761D01*
X139962000Y-87012000D01*
X140009619Y-87059619D01*
X140104857Y-87107238D01*
X140295333Y-87154857D01*
X140533428Y-87154857D01*
X140723904Y-87107238D01*
X140819142Y-87059619D01*
X140866761Y-87012000D01*
X140914380Y-86916761D01*
X140914380Y-86821523D01*
X140866761Y-86726285D01*
X140819142Y-86678666D01*
X140723904Y-86631047D01*
X140533428Y-86583428D01*
X140295333Y-86583428D01*
X140104857Y-86631047D01*
X140009619Y-86678666D01*
X139962000Y-86726285D01*
X139914380Y-86821523D01*
X139914380Y-87773904D02*
X139914380Y-87869142D01*
X139962000Y-87964380D01*
X140009619Y-88012000D01*
X140104857Y-88059619D01*
X140295333Y-88107238D01*
X140533428Y-88107238D01*
X140723904Y-88059619D01*
X140819142Y-88012000D01*
X140866761Y-87964380D01*
X140914380Y-87869142D01*
X140914380Y-87773904D01*
X140866761Y-87678666D01*
X140819142Y-87631047D01*
X140723904Y-87583428D01*
X140533428Y-87535809D01*
X140295333Y-87535809D01*
X140104857Y-87583428D01*
X140009619Y-87631047D01*
X139962000Y-87678666D01*
X139914380Y-87773904D01*
X139866761Y-89250095D02*
X141152476Y-88392952D01*
X140628666Y-89535809D02*
X140628666Y-90012000D01*
X140914380Y-89440571D02*
X139914380Y-89773904D01*
X140914380Y-90107238D01*
X140009619Y-90392952D02*
X139962000Y-90440571D01*
X139914380Y-90535809D01*
X139914380Y-90773904D01*
X139962000Y-90869142D01*
X140009619Y-90916761D01*
X140104857Y-90964380D01*
X140200095Y-90964380D01*
X140342952Y-90916761D01*
X140914380Y-90345333D01*
X140914380Y-90964380D01*
X139914380Y-91583428D02*
X139914380Y-91678666D01*
X139962000Y-91773904D01*
X140009619Y-91821523D01*
X140104857Y-91869142D01*
X140295333Y-91916761D01*
X140533428Y-91916761D01*
X140723904Y-91869142D01*
X140819142Y-91821523D01*
X140866761Y-91773904D01*
X140914380Y-91678666D01*
X140914380Y-91583428D01*
X140866761Y-91488190D01*
X140819142Y-91440571D01*
X140723904Y-91392952D01*
X140533428Y-91345333D01*
X140295333Y-91345333D01*
X140104857Y-91392952D01*
X140009619Y-91440571D01*
X139962000Y-91488190D01*
X139914380Y-91583428D01*
X139914380Y-92535809D02*
X139914380Y-92631047D01*
X139962000Y-92726285D01*
X140009619Y-92773904D01*
X140104857Y-92821523D01*
X140295333Y-92869142D01*
X140533428Y-92869142D01*
X140723904Y-92821523D01*
X140819142Y-92773904D01*
X140866761Y-92726285D01*
X140914380Y-92631047D01*
X140914380Y-92535809D01*
X140866761Y-92440571D01*
X140819142Y-92392952D01*
X140723904Y-92345333D01*
X140533428Y-92297714D01*
X140295333Y-92297714D01*
X140104857Y-92345333D01*
X140009619Y-92392952D01*
X139962000Y-92440571D01*
X139914380Y-92535809D01*
X139914380Y-93488190D02*
X139914380Y-93583428D01*
X139962000Y-93678666D01*
X140009619Y-93726285D01*
X140104857Y-93773904D01*
X140295333Y-93821523D01*
X140533428Y-93821523D01*
X140723904Y-93773904D01*
X140819142Y-93726285D01*
X140866761Y-93678666D01*
X140914380Y-93583428D01*
X140914380Y-93488190D01*
X140866761Y-93392952D01*
X140819142Y-93345333D01*
X140723904Y-93297714D01*
X140533428Y-93250095D01*
X140295333Y-93250095D01*
X140104857Y-93297714D01*
X140009619Y-93345333D01*
X139962000Y-93392952D01*
X139914380Y-93488190D01*
X140819142Y-95583428D02*
X140866761Y-95535809D01*
X140914380Y-95392952D01*
X140914380Y-95297714D01*
X140866761Y-95154857D01*
X140771523Y-95059619D01*
X140676285Y-95012000D01*
X140485809Y-94964380D01*
X140342952Y-94964380D01*
X140152476Y-95012000D01*
X140057238Y-95059619D01*
X139962000Y-95154857D01*
X139914380Y-95297714D01*
X139914380Y-95392952D01*
X139962000Y-95535809D01*
X140009619Y-95583428D01*
X140914380Y-96154857D02*
X140866761Y-96059619D01*
X140819142Y-96012000D01*
X140723904Y-95964380D01*
X140438190Y-95964380D01*
X140342952Y-96012000D01*
X140295333Y-96059619D01*
X140247714Y-96154857D01*
X140247714Y-96297714D01*
X140295333Y-96392952D01*
X140342952Y-96440571D01*
X140438190Y-96488190D01*
X140723904Y-96488190D01*
X140819142Y-96440571D01*
X140866761Y-96392952D01*
X140914380Y-96297714D01*
X140914380Y-96154857D01*
X140914380Y-96916761D02*
X140247714Y-96916761D01*
X140342952Y-96916761D02*
X140295333Y-96964380D01*
X140247714Y-97059619D01*
X140247714Y-97202476D01*
X140295333Y-97297714D01*
X140390571Y-97345333D01*
X140914380Y-97345333D01*
X140390571Y-97345333D02*
X140295333Y-97392952D01*
X140247714Y-97488190D01*
X140247714Y-97631047D01*
X140295333Y-97726285D01*
X140390571Y-97773904D01*
X140914380Y-97773904D01*
X140247714Y-98250095D02*
X141247714Y-98250095D01*
X140295333Y-98250095D02*
X140247714Y-98345333D01*
X140247714Y-98535809D01*
X140295333Y-98631047D01*
X140342952Y-98678666D01*
X140438190Y-98726285D01*
X140723904Y-98726285D01*
X140819142Y-98678666D01*
X140866761Y-98631047D01*
X140914380Y-98535809D01*
X140914380Y-98345333D01*
X140866761Y-98250095D01*
X140914380Y-99583428D02*
X140390571Y-99583428D01*
X140295333Y-99535809D01*
X140247714Y-99440571D01*
X140247714Y-99250095D01*
X140295333Y-99154857D01*
X140866761Y-99583428D02*
X140914380Y-99488190D01*
X140914380Y-99250095D01*
X140866761Y-99154857D01*
X140771523Y-99107238D01*
X140676285Y-99107238D01*
X140581047Y-99154857D01*
X140533428Y-99250095D01*
X140533428Y-99488190D01*
X140485809Y-99583428D01*
X140247714Y-99916761D02*
X140247714Y-100297714D01*
X139914380Y-100059619D02*
X140771523Y-100059619D01*
X140866761Y-100107238D01*
X140914380Y-100202476D01*
X140914380Y-100297714D01*
X140914380Y-100631047D02*
X140247714Y-100631047D01*
X139914380Y-100631047D02*
X139962000Y-100583428D01*
X140009619Y-100631047D01*
X139962000Y-100678666D01*
X139914380Y-100631047D01*
X140009619Y-100631047D01*
X140914380Y-101107238D02*
X139914380Y-101107238D01*
X140295333Y-101107238D02*
X140247714Y-101202476D01*
X140247714Y-101392952D01*
X140295333Y-101488190D01*
X140342952Y-101535809D01*
X140438190Y-101583428D01*
X140723904Y-101583428D01*
X140819142Y-101535809D01*
X140866761Y-101488190D01*
X140914380Y-101392952D01*
X140914380Y-101202476D01*
X140866761Y-101107238D01*
X140914380Y-102154857D02*
X140866761Y-102059619D01*
X140771523Y-102012000D01*
X139914380Y-102012000D01*
X140866761Y-102916761D02*
X140914380Y-102821523D01*
X140914380Y-102631047D01*
X140866761Y-102535809D01*
X140771523Y-102488190D01*
X140390571Y-102488190D01*
X140295333Y-102535809D01*
X140247714Y-102631047D01*
X140247714Y-102821523D01*
X140295333Y-102916761D01*
X140390571Y-102964380D01*
X140485809Y-102964380D01*
X140581047Y-102488190D01*
X140914380Y-104154857D02*
X139914380Y-104154857D01*
X139914380Y-104392952D01*
X139962000Y-104535809D01*
X140057238Y-104631047D01*
X140152476Y-104678666D01*
X140342952Y-104726285D01*
X140485809Y-104726285D01*
X140676285Y-104678666D01*
X140771523Y-104631047D01*
X140866761Y-104535809D01*
X140914380Y-104392952D01*
X140914380Y-104154857D01*
X140866761Y-105535809D02*
X140914380Y-105440571D01*
X140914380Y-105250095D01*
X140866761Y-105154857D01*
X140771523Y-105107238D01*
X140390571Y-105107238D01*
X140295333Y-105154857D01*
X140247714Y-105250095D01*
X140247714Y-105440571D01*
X140295333Y-105535809D01*
X140390571Y-105583428D01*
X140485809Y-105583428D01*
X140581047Y-105107238D01*
X140247714Y-105916761D02*
X140914380Y-106154857D01*
X140247714Y-106392952D01*
X140914380Y-106773904D02*
X140247714Y-106773904D01*
X139914380Y-106773904D02*
X139962000Y-106726285D01*
X140009619Y-106773904D01*
X139962000Y-106821523D01*
X139914380Y-106773904D01*
X140009619Y-106773904D01*
X140866761Y-107678666D02*
X140914380Y-107583428D01*
X140914380Y-107392952D01*
X140866761Y-107297714D01*
X140819142Y-107250095D01*
X140723904Y-107202476D01*
X140438190Y-107202476D01*
X140342952Y-107250095D01*
X140295333Y-107297714D01*
X140247714Y-107392952D01*
X140247714Y-107583428D01*
X140295333Y-107678666D01*
X140866761Y-108488190D02*
X140914380Y-108392952D01*
X140914380Y-108202476D01*
X140866761Y-108107238D01*
X140771523Y-108059619D01*
X140390571Y-108059619D01*
X140295333Y-108107238D01*
X140247714Y-108202476D01*
X140247714Y-108392952D01*
X140295333Y-108488190D01*
X140390571Y-108535809D01*
X140485809Y-108535809D01*
X140581047Y-108059619D01*
X140866761Y-108916761D02*
X140914380Y-109011999D01*
X140914380Y-109202476D01*
X140866761Y-109297714D01*
X140771523Y-109345333D01*
X140723904Y-109345333D01*
X140628666Y-109297714D01*
X140581047Y-109202476D01*
X140581047Y-109059619D01*
X140533428Y-108964380D01*
X140438190Y-108916761D01*
X140390571Y-108916761D01*
X140295333Y-108964380D01*
X140247714Y-109059619D01*
X140247714Y-109202476D01*
X140295333Y-109297714D01*
X140914380Y-110535809D02*
X139914380Y-110535809D01*
X140390571Y-110535809D02*
X140390571Y-111107238D01*
X140914380Y-111107238D02*
X139914380Y-111107238D01*
X140866761Y-111964380D02*
X140914380Y-111869142D01*
X140914380Y-111678666D01*
X140866761Y-111583428D01*
X140771523Y-111535809D01*
X140390571Y-111535809D01*
X140295333Y-111583428D01*
X140247714Y-111678666D01*
X140247714Y-111869142D01*
X140295333Y-111964380D01*
X140390571Y-112011999D01*
X140485809Y-112011999D01*
X140581047Y-111535809D01*
X140914380Y-112440571D02*
X140247714Y-112440571D01*
X140438190Y-112440571D02*
X140342952Y-112488190D01*
X140295333Y-112535809D01*
X140247714Y-112631047D01*
X140247714Y-112726285D01*
X140866761Y-113440571D02*
X140914380Y-113345333D01*
X140914380Y-113154857D01*
X140866761Y-113059619D01*
X140771523Y-113011999D01*
X140390571Y-113011999D01*
X140295333Y-113059619D01*
X140247714Y-113154857D01*
X140247714Y-113345333D01*
X140295333Y-113440571D01*
X140390571Y-113488190D01*
X140485809Y-113488190D01*
X140581047Y-113011999D01*
X107497619Y-107821523D02*
X108497619Y-107821523D01*
X108497619Y-107440571D01*
X108450000Y-107345333D01*
X108402380Y-107297714D01*
X108307142Y-107250095D01*
X108164285Y-107250095D01*
X108069047Y-107297714D01*
X108021428Y-107345333D01*
X107973809Y-107440571D01*
X107973809Y-107821523D01*
X107497619Y-106678666D02*
X107545238Y-106773904D01*
X107640476Y-106821523D01*
X108497619Y-106821523D01*
X108164285Y-105869142D02*
X107497619Y-105869142D01*
X108164285Y-106297714D02*
X107640476Y-106297714D01*
X107545238Y-106250095D01*
X107497619Y-106154857D01*
X107497619Y-106012000D01*
X107545238Y-105916761D01*
X107592857Y-105869142D01*
X108164285Y-104964380D02*
X107354761Y-104964380D01*
X107259523Y-105012000D01*
X107211904Y-105059619D01*
X107164285Y-105154857D01*
X107164285Y-105297714D01*
X107211904Y-105392952D01*
X107545238Y-104964380D02*
X107497619Y-105059619D01*
X107497619Y-105250095D01*
X107545238Y-105345333D01*
X107592857Y-105392952D01*
X107688095Y-105440571D01*
X107973809Y-105440571D01*
X108069047Y-105392952D01*
X108116666Y-105345333D01*
X108164285Y-105250095D01*
X108164285Y-105059619D01*
X108116666Y-104964380D01*
X108164285Y-103869142D02*
X108164285Y-103488190D01*
X108497619Y-103726285D02*
X107640476Y-103726285D01*
X107545238Y-103678666D01*
X107497619Y-103583428D01*
X107497619Y-103488190D01*
X107497619Y-103154857D02*
X108497619Y-103154857D01*
X107497619Y-102726285D02*
X108021428Y-102726285D01*
X108116666Y-102773904D01*
X108164285Y-102869142D01*
X108164285Y-103012000D01*
X108116666Y-103107238D01*
X108069047Y-103154857D01*
X107497619Y-102250095D02*
X108164285Y-102250095D01*
X108497619Y-102250095D02*
X108450000Y-102297714D01*
X108402380Y-102250095D01*
X108450000Y-102202476D01*
X108497619Y-102250095D01*
X108402380Y-102250095D01*
X107545238Y-101821523D02*
X107497619Y-101726285D01*
X107497619Y-101535809D01*
X107545238Y-101440571D01*
X107640476Y-101392952D01*
X107688095Y-101392952D01*
X107783333Y-101440571D01*
X107830952Y-101535809D01*
X107830952Y-101678666D01*
X107878571Y-101773904D01*
X107973809Y-101821523D01*
X108021428Y-101821523D01*
X108116666Y-101773904D01*
X108164285Y-101678666D01*
X108164285Y-101535809D01*
X108116666Y-101440571D01*
X107545238Y-100250095D02*
X107497619Y-100154857D01*
X107497619Y-99964380D01*
X107545238Y-99869142D01*
X107640476Y-99821523D01*
X107688095Y-99821523D01*
X107783333Y-99869142D01*
X107830952Y-99964380D01*
X107830952Y-100107238D01*
X107878571Y-100202476D01*
X107973809Y-100250095D01*
X108021428Y-100250095D01*
X108116666Y-100202476D01*
X108164285Y-100107238D01*
X108164285Y-99964380D01*
X108116666Y-99869142D01*
X107497619Y-99392952D02*
X108164285Y-99392952D01*
X108497619Y-99392952D02*
X108450000Y-99440571D01*
X108402380Y-99392952D01*
X108450000Y-99345333D01*
X108497619Y-99392952D01*
X108402380Y-99392952D01*
X107497619Y-98488190D02*
X108497619Y-98488190D01*
X107545238Y-98488190D02*
X107497619Y-98583428D01*
X107497619Y-98773904D01*
X107545238Y-98869142D01*
X107592857Y-98916761D01*
X107688095Y-98964380D01*
X107973809Y-98964380D01*
X108069047Y-98916761D01*
X108116666Y-98869142D01*
X108164285Y-98773904D01*
X108164285Y-98583428D01*
X108116666Y-98488190D01*
X107545238Y-97631047D02*
X107497619Y-97726285D01*
X107497619Y-97916761D01*
X107545238Y-98012000D01*
X107640476Y-98059619D01*
X108021428Y-98059619D01*
X108116666Y-98012000D01*
X108164285Y-97916761D01*
X108164285Y-97726285D01*
X108116666Y-97631047D01*
X108021428Y-97583428D01*
X107926190Y-97583428D01*
X107830952Y-98059619D01*
X107497619Y-96392952D02*
X108164285Y-96392952D01*
X108497619Y-96392952D02*
X108450000Y-96440571D01*
X108402380Y-96392952D01*
X108450000Y-96345333D01*
X108497619Y-96392952D01*
X108402380Y-96392952D01*
X108164285Y-95916761D02*
X107497619Y-95916761D01*
X108069047Y-95916761D02*
X108116666Y-95869142D01*
X108164285Y-95773904D01*
X108164285Y-95631047D01*
X108116666Y-95535809D01*
X108021428Y-95488190D01*
X107497619Y-95488190D01*
X108164285Y-95154857D02*
X108164285Y-94773904D01*
X108497619Y-95012000D02*
X107640476Y-95012000D01*
X107545238Y-94964380D01*
X107497619Y-94869142D01*
X107497619Y-94773904D01*
X107497619Y-94297714D02*
X107545238Y-94392952D01*
X107592857Y-94440571D01*
X107688095Y-94488190D01*
X107973809Y-94488190D01*
X108069047Y-94440571D01*
X108116666Y-94392952D01*
X108164285Y-94297714D01*
X108164285Y-94154857D01*
X108116666Y-94059619D01*
X108069047Y-94012000D01*
X107973809Y-93964380D01*
X107688095Y-93964380D01*
X107592857Y-94012000D01*
X107545238Y-94059619D01*
X107497619Y-94154857D01*
X107497619Y-94297714D01*
X107783333Y-92821523D02*
X107783333Y-92345333D01*
X107497619Y-92916761D02*
X108497619Y-92583428D01*
X107497619Y-92250095D01*
X107497619Y-91916761D02*
X108164285Y-91916761D01*
X108069047Y-91916761D02*
X108116666Y-91869142D01*
X108164285Y-91773904D01*
X108164285Y-91631047D01*
X108116666Y-91535809D01*
X108021428Y-91488190D01*
X107497619Y-91488190D01*
X108021428Y-91488190D02*
X108116666Y-91440571D01*
X108164285Y-91345333D01*
X108164285Y-91202476D01*
X108116666Y-91107238D01*
X108021428Y-91059619D01*
X107497619Y-91059619D01*
X107497619Y-90583428D02*
X108164285Y-90583428D01*
X108497619Y-90583428D02*
X108450000Y-90631047D01*
X108402380Y-90583428D01*
X108450000Y-90535809D01*
X108497619Y-90583428D01*
X108402380Y-90583428D01*
X108164285Y-89678666D02*
X107354761Y-89678666D01*
X107259523Y-89726285D01*
X107211904Y-89773904D01*
X107164285Y-89869142D01*
X107164285Y-90012000D01*
X107211904Y-90107238D01*
X107545238Y-89678666D02*
X107497619Y-89773904D01*
X107497619Y-89964380D01*
X107545238Y-90059619D01*
X107592857Y-90107238D01*
X107688095Y-90154857D01*
X107973809Y-90154857D01*
X108069047Y-90107238D01*
X108116666Y-90059619D01*
X108164285Y-89964380D01*
X108164285Y-89773904D01*
X108116666Y-89678666D01*
X107497619Y-88773904D02*
X108021428Y-88773904D01*
X108116666Y-88821523D01*
X108164285Y-88916761D01*
X108164285Y-89107238D01*
X108116666Y-89202476D01*
X107545238Y-88773904D02*
X107497619Y-88869142D01*
X107497619Y-89107238D01*
X107545238Y-89202476D01*
X107640476Y-89250095D01*
X107735714Y-89250095D01*
X107830952Y-89202476D01*
X107878571Y-89107238D01*
X107878571Y-88869142D01*
X107926190Y-88773904D01*
X107497619Y-87012000D02*
X107497619Y-87583428D01*
X107497619Y-87297714D02*
X108497619Y-87297714D01*
X108354761Y-87392952D01*
X108259523Y-87488190D01*
X108211904Y-87583428D01*
X108497619Y-86392952D02*
X108497619Y-86297714D01*
X108450000Y-86202476D01*
X108402380Y-86154857D01*
X108307142Y-86107238D01*
X108116666Y-86059619D01*
X107878571Y-86059619D01*
X107688095Y-86107238D01*
X107592857Y-86154857D01*
X107545238Y-86202476D01*
X107497619Y-86297714D01*
X107497619Y-86392952D01*
X107545238Y-86488190D01*
X107592857Y-86535809D01*
X107688095Y-86583428D01*
X107878571Y-86631047D01*
X108116666Y-86631047D01*
X108307142Y-86583428D01*
X108402380Y-86535809D01*
X108450000Y-86488190D01*
X108497619Y-86392952D01*
X108497619Y-85440571D02*
X108497619Y-85345333D01*
X108450000Y-85250095D01*
X108402380Y-85202476D01*
X108307142Y-85154857D01*
X108116666Y-85107238D01*
X107878571Y-85107238D01*
X107688095Y-85154857D01*
X107592857Y-85202476D01*
X107545238Y-85250095D01*
X107497619Y-85345333D01*
X107497619Y-85440571D01*
X107545238Y-85535809D01*
X107592857Y-85583428D01*
X107688095Y-85631047D01*
X107878571Y-85678666D01*
X108116666Y-85678666D01*
X108307142Y-85631047D01*
X108402380Y-85583428D01*
X108450000Y-85535809D01*
X108497619Y-85440571D01*
X108497619Y-84488190D02*
X108497619Y-84392952D01*
X108450000Y-84297714D01*
X108402380Y-84250095D01*
X108307142Y-84202476D01*
X108116666Y-84154857D01*
X107878571Y-84154857D01*
X107688095Y-84202476D01*
X107592857Y-84250095D01*
X107545238Y-84297714D01*
X107497619Y-84392952D01*
X107497619Y-84488190D01*
X107545238Y-84583428D01*
X107592857Y-84631047D01*
X107688095Y-84678666D01*
X107878571Y-84726285D01*
X108116666Y-84726285D01*
X108307142Y-84678666D01*
X108402380Y-84631047D01*
X108450000Y-84583428D01*
X108497619Y-84488190D01*
M02*
