M48
; DRILL file {KiCad (5.1.6)-1} date 02/09/22 07:42:01
; FORMAT={-:-/ absolute / metric / decimal}
; #@! TF.CreationDate,2022-02-09T07:42:01-05:00
; #@! TF.GenerationSoftware,Kicad,Pcbnew,(5.1.6)-1
; #@! TF.FileFunction,Plated,1,2,PTH
FMAT,2
METRIC
T1C0.400
T2C1.041
T3C3.175
%
G90
G05
T1
X118.872Y-97.79
X119.634Y-100.584
X120.396Y-103.378
X121.158Y-106.266
X121.412Y-82.296
X121.92Y-109.024
X122.682Y-111.76
X123.444Y-112.522
X124.169Y-109.728
X124.206Y-82.296
X124.968Y-84.836
X124.968Y-106.934
X125.73Y-104.14
X126.492Y-86.614
X126.492Y-101.346
X127.254Y-98.552
X127.508Y-80.772
T2
X114.407Y-80.79
X114.407Y-83.548
X114.407Y-86.306
X114.407Y-89.064
X114.407Y-91.822
X114.407Y-94.58
X114.407Y-97.338
X114.407Y-100.096
X114.407Y-102.854
X114.407Y-105.612
X114.407Y-108.37
X114.407Y-111.128
X117.252Y-79.411
X117.252Y-82.169
X117.252Y-84.927
X117.252Y-87.685
X117.252Y-90.443
X117.252Y-93.201
X117.252Y-95.959
X117.252Y-98.717
X117.252Y-101.475
X117.252Y-104.233
X117.252Y-106.991
X117.252Y-109.749
X117.252Y-112.507
X131.152Y-79.431
X131.152Y-82.189
X131.152Y-84.947
X131.152Y-87.705
X131.152Y-90.463
X131.152Y-93.221
X131.152Y-95.979
X131.152Y-98.737
X131.152Y-101.495
X131.152Y-104.253
X131.152Y-107.011
X131.152Y-109.769
X131.152Y-112.527
X133.997Y-80.81
X133.997Y-83.568
X133.997Y-86.326
X133.997Y-89.084
X133.997Y-91.842
X133.997Y-94.6
X133.997Y-97.358
X133.997Y-100.116
X133.997Y-102.874
X133.997Y-105.632
X133.997Y-108.39
X133.997Y-111.148
T3
X115.829Y-72.451
X115.829Y-119.492
X132.575Y-72.446
X132.575Y-119.487
T0
M30
